<?xml version="1.0" encoding="utf-8"?>
<!-- Generator: Adobe Illustrator 24.1.3, SVG Export Plug-In . SVG Version: 6.00 Build 0)  -->
<svg version="1.1" id="Layer_1" xmlns="http://www.w3.org/2000/svg" xmlns:xlink="http://www.w3.org/1999/xlink" x="0px" y="0px"
	 viewBox="0 0 103 58" style="enable-background:new 0 0 103 58;" xml:space="preserve">
<style type="text/css">
	.st0{fill:#E9272B;}
	.st1{fill:#375B83;}
</style>
<path class="st0" d="M83.3,38.95c-2.81,0-5.62,0-8.43,0c-0.23,0-0.46,0-0.69-0.02c-0.26-0.02-0.49-0.11-0.72-0.23
	c-0.32-0.18-0.48-0.48-0.57-0.81c-0.06-0.23-0.09-0.47-0.09-0.72c0.01-2.06,0.01-4.11,0-6.17c0-0.25,0.03-0.49,0.09-0.72
	c0.12-0.44,0.37-0.78,0.83-0.93c0.2-0.06,0.39-0.12,0.6-0.12c0.19,0,0.39-0.01,0.58-0.01c4.49,0,8.98,0,13.47,0
	c0.17,0,0.34-0.02,0.5-0.05c0.46-0.09,0.76-0.37,0.93-0.79c0.14-0.35,0.2-0.72,0.1-1.1c-0.04-0.16-0.04-0.33-0.09-0.5
	c-0.17-0.5-0.54-0.76-1.04-0.85c-0.3-0.05-0.6-0.08-0.9-0.13c-0.25-0.05-0.51-0.04-0.76-0.1c-0.25-0.05-0.5-0.06-0.75-0.11
	c-0.22-0.05-0.46-0.06-0.68-0.09c-0.31-0.04-0.62-0.08-0.93-0.14c-0.25-0.04-0.51-0.05-0.76-0.1c-0.25-0.05-0.5-0.05-0.75-0.12
	c-0.19-0.05-0.38-0.03-0.57-0.08c-0.26-0.06-0.53-0.05-0.79-0.1c-0.25-0.05-0.5-0.05-0.75-0.11c-0.2-0.05-0.41-0.05-0.61-0.09
	c-0.45-0.07-1.27-0.25-1.73-0.38c-0.76-0.22-1.49-0.5-2.19-0.87c-0.59-0.31-1.15-0.68-1.66-1.12c-0.42-0.36-0.76-0.78-1.04-1.26
	c-0.39-0.64-0.64-1.33-0.81-2.05c-0.07-0.31-0.13-0.61-0.17-0.93c-0.03-0.22-0.03-0.43-0.07-0.65c-0.09-0.62-0.06-1.24-0.06-1.86
	c0-1.74,0-3.48,0-5.22c0-0.47,0.07-0.94,0.13-1.41c0.08-0.63,0.23-1.24,0.46-1.82c0.29-0.76,0.67-1.48,1.2-2.11
	c0.19-0.22,0.38-0.44,0.59-0.65c0.52-0.52,1.11-0.94,1.75-1.3c0.7-0.4,1.44-0.69,2.21-0.91c0.39-0.11,0.79-0.21,1.2-0.28
	c0.39-0.07,0.79-0.1,1.18-0.19c0.09-0.02,0.19-0.01,0.29-0.01c0.18-0.01,0.36,0,0.54-0.05c0.08-0.03,0.17-0.01,0.25-0.01
	c0.29,0,0.58-0.01,0.88-0.01c4.79,0,9.59,0,14.38,0c0.28,0,0.55,0.01,0.83,0.07c0.68,0.14,1,0.59,1.11,1.19
	c0.06,0.34,0.06,0.67,0.06,1.01c0,1.89,0,3.77,0,5.66c0,0.32-0.04,0.63-0.13,0.93c-0.15,0.5-0.48,0.8-0.98,0.92
	c-0.25,0.06-0.5,0.08-0.76,0.08c-1.75,0-3.5,0-5.26,0c-2.23,0-4.45,0-6.68,0c-0.17,0-0.33,0.01-0.5,0.05
	c-0.31,0.08-0.55,0.23-0.73,0.5c-0.18,0.27-0.29,0.56-0.29,0.88c0,0.1,0,0.19,0,0.29c0,0.46,0.18,0.84,0.51,1.16
	c0.18,0.18,0.4,0.26,0.64,0.32c0.12,0.03,0.24,0.05,0.36,0.06c0.26,0.03,0.53,0.06,0.79,0.09c0.14,0.02,0.29,0.05,0.43,0.07
	c0.14,0.01,0.29,0.03,0.43,0.06c0.18,0.04,0.36,0.03,0.54,0.07c0.26,0.05,0.53,0.06,0.79,0.09c0.14,0.02,0.29,0.05,0.43,0.06
	c0.15,0.01,0.29,0.03,0.43,0.06c0.16,0.04,0.33,0.03,0.5,0.07c0.21,0.04,0.43,0.05,0.65,0.09c0.26,0.04,0.53,0.05,0.79,0.09
	c0.36,0.06,0.72,0.09,1.08,0.15c0.42,0.07,0.84,0.12,1.25,0.19c0.57,0.1,1.14,0.22,1.69,0.39c0.68,0.21,1.35,0.46,1.98,0.8
	c0.76,0.41,1.48,0.88,2.08,1.51c0.31,0.33,0.58,0.69,0.79,1.08c0.39,0.71,0.64,1.46,0.78,2.25c0.06,0.33,0.1,0.67,0.15,1
	c0.08,0.58,0.06,1.16,0.06,1.75c0,1.73,0,3.46,0,5.18c0,0.19,0,0.39,0,0.58c0,0.39-0.07,0.77-0.12,1.15
	c-0.05,0.4-0.14,0.79-0.24,1.17c-0.18,0.66-0.45,1.28-0.8,1.86c-0.4,0.68-0.91,1.26-1.49,1.78c-0.48,0.43-1.01,0.79-1.58,1.1
	c-0.88,0.48-1.81,0.81-2.78,1.02c-0.41,0.09-0.83,0.18-1.25,0.23c-0.22,0.03-0.44,0.03-0.65,0.07c-0.66,0.11-1.33,0.07-2,0.07
	C88.29,38.96,85.79,38.95,83.3,38.95z"/>
<path class="st0" d="M11.38,11.74c-0.17-0.06-0.31-0.04-0.44-0.04c-2.31,0-4.62,0-6.94,0c-0.31,0-0.61-0.03-0.9-0.08
	c-0.31-0.04-0.6-0.17-0.82-0.43c-0.15-0.17-0.24-0.37-0.3-0.58c-0.05-0.18-0.1-0.37-0.09-0.57c0-0.05,0-0.1,0-0.15
	c0-2.13,0-4.26,0-6.39c0-0.23,0.02-0.46,0.08-0.68C2.1,2.27,2.44,1.92,3.01,1.79c0.21-0.05,0.43-0.09,0.65-0.08
	c0.11,0.01,0.22,0,0.33,0c8.95,0,17.89,0,26.84,0c0.18,0,0.37-0.01,0.55,0.01c0.32,0.02,0.62,0.1,0.9,0.25
	c0.16,0.09,0.29,0.21,0.38,0.38c0.17,0.29,0.26,0.6,0.26,0.93c0,0.15,0,0.29,0,0.44c0,1.98,0,3.97,0,5.95
	c0,0.17-0.01,0.34-0.01,0.51c0,0.2-0.05,0.39-0.11,0.57c-0.19,0.53-0.61,0.8-1.15,0.88c-0.2,0.03-0.41,0.05-0.61,0.06
	c-0.19,0.01-0.39,0-0.58,0c-2.19,0-4.38,0-6.57,0c-0.13,0-0.27-0.01-0.42,0.02c-0.01,0.06-0.03,0.11-0.03,0.17
	c-0.01,0.11,0,0.22,0,0.33c0,8.26,0,16.52,0,24.79c0,0.21,0.01,0.41-0.01,0.62c-0.04,0.37-0.17,0.7-0.46,0.96
	c-0.25,0.23-0.57,0.32-0.89,0.36c-0.19,0.02-0.39,0.02-0.58,0.02c-2.71,0-5.43,0-8.14,0c-0.18,0-0.37,0-0.55-0.01
	c-0.24-0.01-0.48-0.07-0.69-0.19c-0.27-0.15-0.48-0.36-0.58-0.67c-0.08-0.24-0.15-0.49-0.14-0.75c0-0.12,0-0.24,0-0.37
	c0-8.26,0-16.52,0-24.79C11.38,12.04,11.38,11.9,11.38,11.74z"/>
<path class="st1" d="M30.74,47.2c0-1.75,0-3.5,0-5.26c0-0.14,0-0.29,0.06-0.43c0.1-0.23,0.28-0.32,0.51-0.36
	c0.06-0.01,0.12,0,0.18,0c1.07,0,2.14,0.01,3.21-0.01c0.52-0.01,0.78,0.27,0.77,0.77c-0.01,2.75,0,5.5,0,8.25c0,0.4,0,0.8,0,1.2
	c0,0.28,0.1,0.52,0.31,0.71c0.14,0.13,0.31,0.2,0.49,0.23c0.27,0.05,0.55,0.1,0.83,0.08c0.17-0.01,0.34,0,0.51-0.01
	c0.26-0.01,0.5-0.07,0.75-0.14c0.32-0.1,0.49-0.32,0.58-0.64c0.05-0.17,0.05-0.33,0.05-0.5c0-3.02,0-6.04,0-9.05
	c0-0.13,0-0.27,0.01-0.4c0.02-0.26,0.21-0.46,0.5-0.49c0.06-0.01,0.12,0,0.18,0c1.06,0,2.12,0,3.18,0c0.15,0,0.29,0.02,0.43,0.07
	c0.11,0.05,0.19,0.11,0.23,0.22c0.04,0.11,0.09,0.22,0.08,0.35c-0.01,0.12,0,0.24,0,0.36c0,3.26,0,6.52,0,9.78c0,0.13,0,0.27,0,0.4
	c-0.01,0.55-0.1,1.08-0.28,1.6c-0.18,0.51-0.49,0.92-0.9,1.25c-0.51,0.4-1.1,0.66-1.72,0.83c-0.24,0.07-0.49,0.13-0.74,0.18
	c-0.18,0.04-0.36,0.09-0.53,0.09c-0.36,0.01-0.72,0.1-1.09,0.09c-0.72-0.01-1.44,0-2.15,0c-0.27,0-0.54,0.02-0.8-0.06
	c-0.03-0.01-0.07-0.01-0.11-0.01c-0.38,0-0.74-0.1-1.11-0.16c-0.2-0.04-0.4-0.09-0.6-0.15c-0.44-0.13-0.87-0.32-1.26-0.56
	c-0.61-0.37-1.06-0.88-1.28-1.57c-0.09-0.29-0.16-0.58-0.21-0.88c-0.06-0.38-0.05-0.75-0.05-1.12
	C30.74,50.31,30.74,48.75,30.74,47.2z"/>
<path class="st1" d="M79.11,46.7c0.13,0,0.25,0,0.37,0c1.2,0,2.41,0,3.61,0c0.18,0,0.36,0.01,0.53,0.11
	c0.08,0.05,0.14,0.11,0.17,0.19c0.05,0.14,0.1,0.27,0.1,0.42c0,0.75,0,1.51,0,2.26c0,0.21-0.05,0.41-0.21,0.56
	c-0.05,0.05-0.11,0.09-0.19,0.1c-0.17,0.03-0.33,0.06-0.5,0.06c-1.17-0.01-2.34,0-3.5,0c-0.12,0-0.24,0.01-0.36,0.01
	c-0.02,0.05-0.04,0.08-0.04,0.11c0,0.54,0,1.07,0,1.61c0,0.02,0.01,0.05,0.03,0.09c0.05,0.01,0.1,0.03,0.16,0.03
	c0.3,0,0.61,0,0.91,0c1.51,0,3.02,0,4.53,0c0.12,0,0.24-0.01,0.36,0.01c0.22,0.03,0.39,0.12,0.45,0.36
	c0.03,0.11,0.05,0.21,0.05,0.32c0,0.83,0,1.65,0,2.48c0,0.11-0.01,0.21-0.05,0.32c-0.09,0.25-0.22,0.35-0.48,0.37
	c-0.12,0.01-0.24,0.01-0.36,0.01c-3.12,0-6.23,0-9.35,0c-0.13,0-0.27,0-0.4-0.01c-0.22-0.02-0.37-0.13-0.43-0.33
	c-0.04-0.14-0.1-0.28-0.08-0.43c0.01-0.05,0-0.1,0-0.15c0-4.36,0-8.71,0-13.07c0-0.18,0.01-0.36,0.06-0.54
	c0.07-0.23,0.24-0.4,0.48-0.43c0.07-0.01,0.15,0,0.22,0c3.21,0,6.43,0,9.64,0c0.04,0,0.07,0,0.11,0c0.39,0,0.63,0.24,0.64,0.64
	c0,0.05,0,0.1,0,0.15c0,0.78,0,1.56,0,2.34c0,0.15-0.01,0.29-0.07,0.43c-0.08,0.18-0.2,0.3-0.4,0.31c-0.13,0-0.27,0.01-0.4,0.01
	c-1.72,0-3.43,0-5.15,0c-0.1,0-0.19,0-0.29,0c-0.12,0.01-0.19,0.07-0.19,0.18c0,0.46,0,0.92,0,1.39
	C79.07,46.61,79.08,46.63,79.11,46.7z"/>
<path class="st1" d="M2.25,48.64c0-1.03,0-2.07,0-3.1c0-0.21-0.01-0.41,0.01-0.62c0.01-0.19,0.04-0.39,0.07-0.57
	c0.16-0.86,0.51-1.61,1.2-2.18c0.32-0.26,0.68-0.46,1.07-0.6c0.35-0.13,0.72-0.21,1.08-0.28c0.2-0.04,0.41-0.04,0.61-0.08
	c0.47-0.09,0.94-0.05,1.42-0.06c1.52-0.01,3.04,0,4.56,0c0.1,0,0.19,0,0.29,0c0.2,0,0.35,0.08,0.47,0.23
	c0.04,0.05,0.07,0.1,0.08,0.16c0.04,0.16,0.07,0.33,0.07,0.5c-0.01,0.73,0,1.46,0,2.19c0,0.16-0.02,0.31-0.06,0.47
	c-0.05,0.21-0.17,0.33-0.38,0.38c-0.17,0.04-0.33,0.06-0.5,0.06c-1.35,0-2.7,0-4.05,0c-0.21,0-0.41,0.01-0.61,0.08
	c-0.2,0.08-0.36,0.2-0.48,0.38c-0.07,0.1-0.12,0.21-0.12,0.34c0,0.11-0.01,0.22-0.01,0.33c0,1.61,0,3.21,0,4.82
	c0,0.07,0,0.15,0,0.22c-0.01,0.33,0.17,0.55,0.43,0.71c0.15,0.09,0.33,0.15,0.52,0.16c0.13,0,0.27,0.01,0.4,0.01
	c1.34,0,2.68,0,4.01,0c0.14,0,0.29,0,0.43,0.05c0.2,0.07,0.32,0.19,0.36,0.41c0.03,0.14,0.05,0.28,0.05,0.43
	c0,0.72-0.01,1.44,0,2.15c0,0.17-0.03,0.34-0.07,0.5c-0.04,0.2-0.14,0.34-0.43,0.38c-0.08,0.01-0.17,0.01-0.26,0.01
	c-1.91,0-3.82,0-5.73-0.01c-0.34,0-0.67-0.07-1.01-0.12c-0.34-0.05-0.66-0.13-0.98-0.24c-0.48-0.16-0.92-0.39-1.29-0.72
	c-0.4-0.35-0.69-0.78-0.87-1.28c-0.11-0.31-0.19-0.62-0.24-0.95c-0.04-0.27-0.06-0.53-0.06-0.8C2.25,50.88,2.25,49.76,2.25,48.64z"
	/>
<path class="st1" d="M64.55,45.16c-0.14-0.01-0.23-0.02-0.33-0.02c-0.49,0-0.97,0-1.46,0c-0.16,0-0.31-0.02-0.47-0.06
	c-0.22-0.05-0.33-0.17-0.38-0.38c-0.04-0.16-0.06-0.31-0.06-0.47c0-0.73,0-1.46,0-2.19c0-0.15,0.02-0.29,0.05-0.43
	c0.02-0.13,0.08-0.23,0.17-0.31c0.1-0.09,0.22-0.15,0.36-0.15c0.07,0,0.15,0,0.22,0c1.97,0,3.94,0,5.91,0
	c0.14,0,0.28,0.01,0.43,0.05c0.24,0.07,0.32,0.24,0.35,0.46c0.02,0.14,0.01,0.29,0.01,0.44c0,2.09,0,4.18,0,6.28
	c0,1.09,0,2.19,0,3.28c0,0.07,0,0.15,0,0.22c-0.01,0.22,0.05,0.29,0.3,0.29c0.54-0.01,1.07,0,1.61,0c0.11,0,0.22,0,0.33,0
	c0.29,0.01,0.49,0.21,0.52,0.5c0.01,0.06,0,0.12,0,0.18c0,0.84,0,1.68,0,2.52c0,0.12,0,0.24-0.05,0.36
	c-0.1,0.25-0.22,0.35-0.48,0.37c-0.1,0.01-0.19,0.01-0.29,0.01c-3.01,0-6.01,0-9.02,0c-0.11,0-0.22,0.01-0.33-0.01
	c-0.3-0.04-0.45-0.24-0.48-0.47c-0.01-0.07-0.01-0.15-0.01-0.22c0-0.85,0-1.7,0-2.55c0-0.09,0-0.17,0.01-0.26
	c0.03-0.23,0.18-0.4,0.43-0.42c0.11-0.01,0.22-0.01,0.33-0.01c0.6,0,1.19,0,1.79,0c0.04,0,0.07,0,0.11,0
	c0.44,0.02,0.41-0.05,0.41-0.4c0-1.3,0-2.6,0-3.9c0-0.79,0-1.58,0-2.37C64.55,45.39,64.55,45.3,64.55,45.16z"/>
<path class="st0" d="M67.32,23.38c0-0.57-0.05-1.13-0.13-1.7c-0.07-0.48-0.16-0.95-0.26-1.43c-0.14-0.67-0.33-1.34-0.54-1.99
	c-0.21-0.66-0.43-1.31-0.66-1.96c-0.18-0.52-0.39-1.04-0.59-1.56c-0.23-0.6-0.45-1.2-0.68-1.8c-0.26-0.69-0.53-1.38-0.79-2.07
	c-0.29-0.77-0.59-1.54-0.88-2.31c-0.21-0.54-0.42-1.08-0.63-1.63c-0.23-0.61-0.46-1.22-0.7-1.83C61.24,4.55,61.03,4,60.81,3.45
	c-0.08-0.21-0.18-0.43-0.29-0.62c-0.25-0.42-0.6-0.72-1.06-0.89c-0.41-0.15-0.84-0.22-1.28-0.21c-4.61,0-9.22,0-13.84,0
	c-0.29,0-0.58,0.01-0.87,0.08c-0.5,0.11-0.94,0.31-1.29,0.7c-0.2,0.23-0.36,0.49-0.47,0.78c-0.19,0.48-0.37,0.97-0.55,1.46
	c-0.25,0.64-0.5,1.29-0.74,1.93c-0.2,0.53-0.41,1.06-0.61,1.59c-0.22,0.58-0.44,1.15-0.66,1.73c-0.32,0.82-0.64,1.65-0.96,2.47
	c-0.36,0.94-0.7,1.88-1.07,2.82c-0.44,1.12-0.82,2.25-1.17,3.39c-0.07,0.22-0.12,0.44-0.18,0.66c-0.19,0.71-0.35,1.43-0.46,2.16
	c-0.06,0.4-0.13,0.79-0.13,1.19c0,0.06,0.01,0.13-0.01,0.18c-0.07,0.23-0.05,0.46-0.05,0.69c0,4.36,0,8.71,0,13.07
	c0,0.35-0.01,0.7,0.06,1.05c0.04,0.21,0.1,0.4,0.18,0.59c0.05,0.12,0.14,0.23,0.24,0.32c0.29,0.23,0.62,0.38,1,0.38
	c0.18,0,0.36,0.01,0.55,0.01c2.43,0,4.87,0,7.3,0c0.13,0,0.27,0,0.4,0c0.18,0,0.36-0.02,0.54-0.07c0.42-0.11,0.72-0.35,0.89-0.74
	c0.08-0.19,0.14-0.39,0.15-0.6c0.01-0.21,0.01-0.41,0.01-0.62c0-2.2,0-4.4,0-6.61c0-0.13-0.02-0.27,0.01-0.38
	c0.04-0.02,0.06-0.05,0.08-0.05c2.97-0.01,5.94-0.01,8.91-0.01c0.06,0,0.12,0.01,0.21,0.02c0,0.18,0,0.31,0,0.44c0,2.2,0,4.4,0,6.61
	c0,0.11-0.01,0.22,0,0.33c0.03,0.33,0.08,0.65,0.24,0.94c0.11,0.2,0.25,0.35,0.45,0.46c0.29,0.16,0.6,0.26,0.93,0.27
	c0.18,0,0.36,0.01,0.55,0.01c2.49,0,4.99,0,7.48,0c0.16,0,0.32,0,0.47-0.01c0.17,0,0.33-0.03,0.5-0.07
	c0.46-0.12,0.77-0.39,0.92-0.85c0.07-0.22,0.13-0.44,0.12-0.68c0-0.11,0-0.22,0-0.33C67.31,32.48,67.31,27.93,67.32,23.38z
	 M55.1,20.43c-0.02,0.01-0.04,0.04-0.06,0.04c-0.22,0.02-7.78,0.01-7.99-0.01c-0.06-0.04-0.05-0.11-0.03-0.17
	c0.04-0.13,0.09-0.25,0.13-0.38c0.26-0.84,0.52-1.69,0.79-2.53c0.18-0.58,0.35-1.16,0.53-1.73c0.24-0.76,0.47-1.52,0.71-2.29
	c0.08-0.27,0.16-0.53,0.25-0.8c0.09-0.26,0.24-0.48,0.43-0.66c0.14-0.13,0.3-0.2,0.49-0.2c0.47,0,0.95,0,1.42,0
	c0.27,0,0.47,0.13,0.62,0.33c0.15,0.19,0.27,0.4,0.34,0.64c0.19,0.63,0.38,1.25,0.58,1.87c0.26,0.82,0.51,1.64,0.77,2.46
	c0.21,0.69,0.43,1.39,0.64,2.08c0.13,0.43,0.26,0.85,0.39,1.28C55.11,20.38,55.1,20.4,55.1,20.43z"/>
<path class="st1" d="M28.02,43.94c-0.15-0.86-0.59-1.53-1.3-2.02c-0.34-0.24-0.71-0.41-1.1-0.55c-0.71-0.25-1.44-0.39-2.19-0.44
	c-0.06,0-0.13,0-0.18-0.02c-0.12-0.05-0.24-0.04-0.36-0.04c-0.97,0-1.94-0.07-2.91,0.06c-0.29-0.02-0.58,0.04-0.86,0.1
	c-0.52,0.1-1.04,0.22-1.54,0.41c-0.48,0.18-0.92,0.44-1.3,0.78c-0.54,0.49-0.81,1.13-0.94,1.84c-0.04,0.19-0.06,0.38-0.07,0.57
	c-0.01,0.21-0.01,0.41-0.01,0.62c0,1.13,0,2.26,0,3.39c0,1.2,0,2.41,0,3.61c0,0.44,0.05,0.87,0.15,1.29
	c0.19,0.75,0.59,1.34,1.23,1.78c0.46,0.32,0.97,0.54,1.51,0.68c0.38,0.1,0.77,0.19,1.17,0.24c0.31,0.05,0.62,0.09,0.93,0.11
	c0.56,0.03,1.12,0.03,1.68,0.02c0.57-0.01,1.14,0.03,1.71-0.08c0.26,0.02,0.51-0.06,0.76-0.1c0.48-0.08,0.94-0.21,1.39-0.38
	c0.33-0.12,0.64-0.28,0.94-0.47c0.58-0.38,0.97-0.9,1.19-1.56c0.18-0.53,0.25-1.08,0.25-1.64c0.01-2.21,0-4.43,0.01-6.64
	C28.16,44.99,28.12,44.46,28.02,43.94z M23.5,46.09c0,1.7,0,3.41,0,5.11c0,0.14-0.01,0.29-0.04,0.43c-0.09,0.51-0.48,0.7-0.82,0.76
	c-0.46,0.08-0.88,0.11-1.34,0.07c-0.24-0.02-0.48-0.06-0.71-0.12c-0.37-0.09-0.64-0.42-0.67-0.89c-0.01-0.11,0-0.22,0-0.33
	c0-0.83,0-1.65,0-2.48c0-0.46,0-0.91,0-1.37c0-0.46,0-0.91,0-1.37c0-0.29,0.11-0.52,0.3-0.71c0.12-0.13,0.28-0.2,0.45-0.23
	c0.21-0.04,0.42-0.1,0.65-0.09c0.27,0.01,0.54,0,0.8,0c0.24,0,0.48,0.07,0.71,0.12c0.39,0.09,0.64,0.43,0.67,0.89
	C23.5,45.94,23.5,46.01,23.5,46.09z"/>
<path class="st1" d="M59.29,49.68c-0.19-0.61-0.94-1.37-1.55-1.54c-0.19-0.05-0.36-0.13-0.56-0.14c-0.06,0-0.08-0.04-0.08-0.1
	c0.1-0.06,0.2-0.13,0.3-0.2c0.14-0.1,0.26-0.22,0.35-0.37c0.13-0.22,0.22-0.46,0.29-0.7c0.09-0.29,0.05-0.6,0.13-0.9
	c0-0.71,0.03-1.43-0.13-2.14c-0.13-0.56-0.37-1.05-0.75-1.47c-0.3-0.34-0.7-0.55-1.13-0.69c-0.44-0.15-1.29-0.28-1.86-0.28
	c-2.37,0-4.74,0-7.12,0c-0.07,0-0.15,0-0.22,0c-0.3,0.02-0.48,0.19-0.54,0.49c-0.04,0.2-0.05,0.41-0.05,0.61c0,4.27,0,8.54,0,12.81
	c0,0.22,0.04,0.43,0.07,0.65c0.02,0.14,0.11,0.23,0.23,0.31c0.13,0.08,0.28,0.09,0.42,0.09c1.09,0,2.19,0,3.28,0
	c0.05,0,0.1,0,0.15,0c0.29-0.03,0.45-0.19,0.51-0.47c0.04-0.22,0.05-0.43,0.05-0.65c0-1.13,0-2.26,0-3.39
	c0-0.09-0.03-0.19,0.06-0.29c0.06,0,0.13-0.01,0.2-0.01c0.89,0,1.78,0,2.66,0c0.05,0,0.1,0,0.15,0c0.33,0.03,0.5,0.16,0.61,0.48
	c0.05,0.15,0.07,0.3,0.07,0.46c0,1,0,1.99,0,2.99c0,0.12,0,0.24,0.01,0.36c0.01,0.23,0.18,0.49,0.52,0.51
	c0.1,0.01,0.19,0.01,0.29,0.01c1.01,0,2.02,0,3.03,0c0.09,0,0.17,0,0.26,0c0.35-0.02,0.55-0.22,0.57-0.58c0-0.05,0-0.1,0-0.15
	c0-1.51,0-3.02,0-4.52C59.5,50.45,59.41,50.06,59.29,49.68z M53.52,47.02c-0.1,0.32-0.28,0.51-0.73,0.55c-0.17,0.01-0.34,0-0.51,0
	c-0.32,0-0.63,0-0.95,0c-0.07,0-0.15,0.02-0.21-0.03c-0.06-0.06-0.04-0.14-0.04-0.21c-0.02-1.39-0.01-2.18,0.04-2.44
	c0.05-0.05,0.11-0.04,0.17-0.04c0.46,0,0.92,0,1.39,0c0.13,0,0.26,0.02,0.39,0.06c0.18,0.05,0.3,0.16,0.38,0.32
	c0.09,0.17,0.15,0.36,0.15,0.56c0,0.28-0.01,0.56,0,0.84C53.6,46.77,53.56,46.89,53.52,47.02z"/>
<path class="st1" d="M101.19,51.31c0-0.3,0-0.6-0.05-0.91c-0.04-0.24-0.08-0.48-0.17-0.7c-0.37-0.96-1.08-1.52-2.09-1.7
	c-0.04-0.01-0.09-0.02-0.13-0.03c0.02-0.11,0.1-0.15,0.18-0.19c0.21-0.11,0.38-0.26,0.49-0.47c0.09-0.17,0.18-0.35,0.24-0.53
	c0.09-0.27,0.15-0.56,0.15-0.85c0-0.49,0-0.97,0-1.46c0-0.5-0.09-0.98-0.28-1.45c-0.32-0.79-0.87-1.33-1.68-1.6
	c-0.6-0.2-1.22-0.28-1.86-0.28c-2.37-0.01-4.75,0-7.12,0c-0.09,0-0.17-0.01-0.26,0c-0.16,0.03-0.31,0.08-0.41,0.21
	c-0.08,0.12-0.15,0.25-0.14,0.41c0,0.11,0,0.22,0,0.33c0,4.36,0,8.71,0,13.07c0,0.09,0,0.17,0,0.26c0,0.11,0.03,0.21,0.06,0.32
	c0.07,0.24,0.24,0.32,0.45,0.36c0.1,0.01,0.19,0.01,0.29,0.01c1.02,0,2.04,0,3.07,0c0.1,0,0.2,0,0.29-0.01
	c0.32-0.03,0.47-0.27,0.49-0.5c0.01-0.13,0.01-0.27,0.01-0.4c0-1.17,0-2.34,0-3.5c0-0.12,0-0.24,0.01-0.4
	c0.15-0.01,0.25-0.01,0.36-0.01c0.63,0,1.27,0,1.9,0c0.27,0,0.54,0.01,0.8,0c0.3-0.01,0.65,0.26,0.67,0.64
	c0.01,0.12,0.01,0.24,0.01,0.36c0,0.92,0.01,1.85,0,2.77c0,0.22,0.04,0.43,0.07,0.65c0.02,0.13,0.09,0.22,0.2,0.29
	c0.13,0.07,0.26,0.11,0.42,0.11c1.13,0,2.26,0,3.39,0c0.05,0,0.1,0,0.15-0.01c0.2-0.02,0.34-0.12,0.41-0.31
	c0.06-0.16,0.09-0.32,0.09-0.5C101.19,53.96,101.19,52.64,101.19,51.31z M95.29,45.99c-0.01,0.18,0,0.36,0,0.55
	c-0.01,0.22-0.06,0.43-0.15,0.63c-0.11,0.25-0.33,0.34-0.57,0.39c-0.13,0.03-1.61,0-1.8-0.02c-0.01-0.04-0.03-0.08-0.03-0.13
	c0-0.8,0-1.6,0-2.41c0-0.04,0.01-0.07,0.02-0.13c0.2-0.02,1.66-0.04,1.81-0.02c0.31,0.04,0.57,0.26,0.65,0.6
	C95.25,45.63,95.3,45.81,95.29,45.99z"/>
</svg>
