<?xml version="1.0" encoding="UTF-8" standalone="no"?>
<svg xmlns:rdf="http://www.w3.org/1999/02/22-rdf-syntax-ns#" xmlns="http://www.w3.org/2000/svg" height="215.40002" width="595.32001" version="1.1" xmlns:cc="http://creativecommons.org/ns#" xmlns:dc="http://purl.org/dc/elements/1.1/" viewBox="0 0 595.32001 215.40002"><path d="M338.88,59.28a2.96928,2.96928,0,0,1,3,3v91.08a2.71558,2.71558,0,0,1-2.76,2.76H320.28a5.86433,5.86433,0,0,1-3.24-1.56s-33.84-46.44-34.92-47.64a21.83388,21.83388,0,0,1-2.28-4.32v50.76a2.74559,2.74559,0,0,1-2.88,2.76H255.84a2.74559,2.74559,0,0,1-2.88-2.76V62.28a2.74559,2.74559,0,0,1,2.88-2.76h18.84a5.18939,5.18939,0,0,1,3.12,1.56s33.48,45.6,34.92,47.64a25.56424,25.56424,0,0,1,2.4,4.32V62.28a2.71558,2.71558,0,0,1,2.76-2.76C317.88,59.28,337.56,59.28,338.88,59.28Zm148.8,131.88c-45.84,0-83.16-37.44-83.16-83.4,0-46.08,37.32-83.52,83.16-83.52,45.72,0,83.04,37.44,83.04,83.52C570.72,153.72,533.4,191.16,487.68,191.16Zm-190.2,0c-45.84,0-83.16-37.44-83.16-83.4,0-46.08,37.32-83.52,83.16-83.52,45.72,0,83.04,37.44,83.04,83.52C380.52,153.72,343.2,191.16,297.48,191.16Zm-190.2,0c-45.84,0-83.16-37.44-83.16-83.4,0-46.08,37.32-83.52,83.16-83.52,45.72,0,83.04,37.44,83.04,83.52C190.2,153.72,152.88,191.16,107.28,191.16ZM487.68,0C446.4,0,410.52,23.64,392.4,58.08a106.99648,106.99648,0,0,0-190.32,0A107.30658,107.30658,0,0,0,106.8,0C48.12,0,0,48.36,0,107.76,0,167.04,48.12,215.4,107.28,215.4c41.16,0,77.16-23.64,95.16-58.08A107.26063,107.26063,0,0,0,297.6,215.4c41.28,0,77.16-23.64,95.28-58.08a107.12159,107.12159,0,0,0,95.16,58.08c59.16,0,107.28-48.36,107.28-107.64C594.96,48.36,546.72,0,487.68,0ZM66.96,61.08a2.71556,2.71556,0,0,0-2.76,2.76V81.96a2.71556,2.71556,0,0,0,2.76,2.76H88.8a27.44713,27.44713,0,0,0,4.2-.36v71.4a2.71558,2.71558,0,0,0,2.76,2.76H118.2a2.71558,2.71558,0,0,0,2.76-2.76V84.36a47.58746,47.58746,0,0,0,5.28.36h20.88a2.71558,2.71558,0,0,0,2.76-2.76V63.84a2.71558,2.71558,0,0,0-2.76-2.76Zm460.92,0a2.71558,2.71558,0,0,1,2.76,2.76V81.96a2.71558,2.71558,0,0,1-2.76,2.76H507.12a48.22846,48.22846,0,0,1-5.4-.36v71.4a2.71556,2.71556,0,0,1-2.76,2.76H476.52a2.71558,2.71558,0,0,1-2.76-2.76V84.36a27.44765,27.44765,0,0,1-4.2.36H447.72a2.71556,2.71556,0,0,1-2.76-2.76V63.84a2.71556,2.71556,0,0,1,2.76-2.76Z" fill="#f60"/></svg>